<svg version="1.2" xmlns="http://www.w3.org/2000/svg" viewBox="0 0 507 146" width="507" height="146">
	<title>RME-CARTEDEVISITE (1)-pdf-pdf</title>
	<defs>
		<clipPath clipPathUnits="userSpaceOnUse" id="cp1">
			<path d="m-630-285h1920v2544h-1920z" />
		</clipPath>
	</defs>
	<style>
		.s0 { fill: #015b97 } 
		.s1 { fill: #2c2e35 } 
	</style>
	<g id="Page 1" clip-path="url(#cp1)">
		<g id="Folder 1">
			<path id="Path 1" fill-rule="evenodd" class="s0" d="m499.9 94.4l-0.5-0.1q-0.1 0-0.1 0q-0.1-0.1-0.1-0.2l0.4-2.3q0.3 0.1 0.6 0.2q0.3 0.1 0.5 0.1q0.6 0 1.8-0.7q0 0 0 0q0.2 0 0.2 0q0.1 0.1 0.1 0.2q0 0 0 0q-0.1 0.4-0.3 1.6q-0.2 1.3-0.2 1.3q-0.3 0.1-0.6 0.3q-0.3 0.2-0.4 0.3q-0.2 0.2-0.7 0.7q-0.4 0.5-0.5 0.6q-0.3 0.3-0.5 0.5q-1.3 1.1-2.4 1.1q-0.5 0-0.9-0.2q-0.2-0.1-0.5-0.2q-0.2-0.2-0.5-0.4q-0.1-0.1-0.2-0.3q-0.7-0.9-0.7-2.3q0-0.1 0-0.2q0-0.1 0-0.4q-0.4 0-1.2 0.3q-0.8 0.3-1.2 0.6q-0.2 0.2-0.6 0.8q-0.3 0.5-0.7 1.4q-0.4 0.8-0.8 1.6q-0.4 1-1.8 1.5q-1.3 0.4-4.3 0.7q-0.4 0-0.5 0q-0.2 0-0.2-0.1q0-0.2 0.6-0.4q0.6-0.1 1.5-0.5q0.9-0.5 1.8-0.9q0.9-0.6 1.4-1c0.5-0.4 0.7-0.6 0.8-0.7q0.4-0.4 0.8-1.1q0.5-0.8 1.1-2.2q0.2-0.5 0.7-1q0.4-0.4 0.9-0.7q0.7-0.4 1.2-0.5q0.5-0.2 1.2-0.2q-0.2 0.8-0.2 1.6q0 0.5 0.2 1q0.3 0.9 0.7 1.2q0.3 0.2 1.4 0.2h0.5q0.6 0 1.1-0.3q0.6-0.3 1.1-0.9zm-3.9-6.4l-1.2 1.3l-1.3-1.1l-1.1 1.2l-1.5-1.1l1.2-1.4l1.4 1l1.2-1.1zm-18.9 10q-0.1 0-0.2 0q-0.6 0-1.1-0.2q-0.4-0.2-0.6-0.5q0 0 0-0.1q-0.1 0.4-0.4 0.8q-0.4 0.5-0.5 0.5q-0.7-0.1-1.4-0.9q-0.7-0.8-0.7-1.5q-0.3 0.3-1.1 0.8q-0.6 0.4-1.3 0.7c-0.4 0.3-0.8 0.6-1 0.8q0.2 0.4 0.6 0.9q0.5 0.7 0.9 1.3q0.7 0.9 1.3 1.9q0.4 0.7 0.6 1.3q0.2 0.5 0.2 1.2q0 0.2-0.1 0.3q0 0.2-0.1 0.2q-0.1-0.1-0.2-0.3q0-0.2-0.1-0.3q-0.2-0.5-0.5-0.9q-0.3-0.4-0.5-0.8q-0.4-0.4-0.9-1c-0.5-0.5-0.9-1-1.2-1.6q-0.4-0.8-0.6-1.9q-0.1-0.4-0.1-0.8q0-0.7 0.7-1.9q0.4-0.3 1.4-0.9l1.7-0.9q0.9-0.5 1-0.8q0-0.2 0-0.5q0.1-0.2 0.2-0.4q0.7 0.3 1.2 1q0.6 0.7 0.8 1.7q0.3 0.2 0.6 0.3q0.2 0 0.6 0c0.1 0 0.5 0 0.6 0v0.1h1.3q0.4-1.8 1.2-3q0.9-1.2 1.8-1.2q0.7 0.1 1.2 0.4q0.5 0.3 1.2 1q0.3 0.3 0.7 0.3q0.2 0 0.5-0.1q0.3 0 0.7-0.2l-0.7 2.5q-0.5 0-0.9 0.2q-0.5 0.2-1 0.5q-1.3 0.9-2.2 1.3q-0.9 0.4-2 0.7l-0.3 1.8c0 0.1-0.1 0.3-0.1 0.3q-0.1 0.2-0.2 0.2q-0.1 0-0.2-0.2q-0.1-0.2-0.1-0.4l0.1-1.7zm1.8 2.4l1.2-1.2l1.4 1.3l-1.3 1.2zm0.3-4.8q0.7-0.1 1.3-0.3q0.6-0.2 1.7-0.7q-0.3-0.5-0.7-0.7q-0.4-0.2-0.8-0.2q-0.3 0-0.5 0.1q-0.3 0.2-0.5 0.4q-0.2 0.4-0.3 0.7q-0.2 0.4-0.2 0.7zm-6-1q-0.2-0.1-0.4 0.3q0 0.1 0 0.2q0 0 0 0.1q0 0.4 0.4 0.8q0.4 0.3 0.9 0.3h0.1q0-0.5-0.3-1.1q-0.3-0.6-0.7-0.6zm-16.3-2.6q-0.6 0.3-0.9 0.6q0.3 0 0.5 0q0.2 0 0.3 0c0.1 0 0.4 0 0.5 0q0.9 0 0.9 0.6q0 0.1 0 0.2q0 0.3-0.7 1.3q-0.7 1-1.1 1.3q-1 1-2.3 1.5q-1.3 0.6-2.6 0.6q-0.2-0.1-0.3-0.1v0.1q-1.2 0-1.9-0.7q-0.6-0.6-0.9-2q-0.4 1.2-1.4 1.9q-0.9 0.8-2.1 0.8q-0.3 0-0.5-0.1q-0.4 0-0.9-0.2q-0.6-0.2-1.1-0.7q-1 0.5-2.4 0.7q-1.4 0.3-2.8 0.3q-1.9 0-3.3-0.5q-1.5-0.5-2-1.3q-0.2-0.6-0.3-1.1q-0.1-0.5-0.1-1q0-0.8 0.3-1.6q0.3-0.8 0.9-1.5q0.4-0.6 1.5-1.2q1.1-0.6 2.1-1.2q1.2-0.7 1.6-1.4q0 1.1-1.2 2q-1.2 0.7-2.3 1.4q-1.4 0.9-1.8 1.8q-0.1 0.5-0.1 0.8q0 0.9 0.9 1.5q0.7 0.5 2.1 0.8q1.2 0.2 2.6 0.2q1 0 1.8-0.1q0.8-0.1 1.3-0.2q-0.2-0.4-0.2-0.7q-0.1-0.3-0.1-0.5q0-0.4 0.1-0.7c0.1-0.2 0.2-0.5 0.3-0.8q0.2-0.4 0.5-0.9q0.4-0.6 1-1q0.5-0.4 0.7-0.4q0.2-0.1 0.3-0.1q0.3 0 0.5 0.2q0.2 0.2 0.4 0.7q0.1 0.7 0.1 1.2q0 1-0.3 1.7q-0.2 0.7-0.6 1.2q0.2 0.1 0.3 0.2q0.2 0 0.4 0h0.2q1.4-0.1 2.3-0.6q1.1-0.7 1.1-1.8q0-1.1-0.2-2.7q-0.2-1.6-0.5-3q-0.2-1.4-0.4-1.7l1.2-2.6q0.3 1.5 0.5 3.7q0.3 2 0.4 3.9q0.2 1.9 0.2 2.8q0 1.1 0.5 1.6q0.4 0.4 1.3 0.4v0.1h1.3q1.7 0 3.4-0.9q-0.3-0.2-0.5-0.3q-0.4-0.1-0.9-0.1q-0.7 0-2.2 0.3q0-0.2 0.3-0.8q0.2-0.5 0.4-0.7q0.8-0.7 2.5-1.8q0.8-0.5 2.8-1.6q1.6-0.9 1.9-1.1l-0.5-0.2q-0.1 0-0.1 0q-0.1-0.1 0-0.2l0.3-2.3q0.7 0.3 1.1 0.3q0.4 0 0.8-0.2q0.4-0.1 1-0.5q0 0 0.1 0q0.1 0 0.2 0q0.1 0.1 0.1 0.2q0 0 0 0.1q-0.1 0.2-0.3 0.8q0 0.2-0.3 2.1q-0.2 0.1-0.5 0.2q-0.3 0.2-0.5 0.3q-0.3 0.4-1.1 0.9q-0.5 0.4-1.4 0.8q-0.6 0.3-0.9 0.4q-0.8 0.4-1.3 0.6zm-15.7-4.1l1.2-1.2l1.4 1.1l-1.2 1.3zm1.2 6.5q0.1 0.1 0.5 0.4q0.3-0.1 0.5-0.3q0.1-0.1 0.4-0.4q0-0.6-0.2-0.9q-0.2-0.3-0.5-0.3q-0.2 0-0.5 0.2q-0.4 0.3-0.6 0.6q0.1 0.4 0.4 0.7zm-21.7-6.5l1.2-1.2l1.4 1.2l-1.2 1.2zm-2.5 10.3q-0.1 0-0.2-0.1v0.1q-1.1 0-1.8-0.6q-0.7-0.6-0.9-1.8q0-0.1-0.1-0.1q0 0-0.1 0.1q-0.1 0.1-0.1 0.2q-0.4 0.7-0.6 1q-0.4 0.5-1 0.8q-0.6 0.3-1.5 0.3v0.1q-0.3 0-0.6-0.1q-0.3-0.1-0.5-0.2q-0.5-0.1-0.9-0.5q-0.2-0.2-0.3-0.4q0-0.1 0-0.2q-0.5-0.9-0.5-2q0-0.1 0-0.2q0-0.1 0-0.4q-0.4 0-1.2 0.3q-0.8 0.3-1.2 0.6q-0.2 0.2-0.6 0.8q-0.3 0.5-0.7 1.3q-0.3 0.9-0.7 1.7q-0.5 0.9-1.9 1.4q-1.3 0.5-4.3 0.8q-0.4 0-0.5 0c-0.1 0-0.2-0.1-0.1-0.1q0-0.2 0.5-0.4q0.6-0.2 1.5-0.5q1-0.5 1.8-0.9q1-0.6 1.4-1q0.7-0.6 0.8-0.7q0.4-0.4 0.8-1.1q0.5-0.8 1.1-2.2q0.3-0.6 0.7-1q0.4-0.4 0.9-0.7q0.7-0.4 1.2-0.5q0.5-0.2 1.2-0.2q-0.1 0.8-0.1 1.5q0 0.6 0.1 1.1c0.2 0.6 0.5 1 0.7 1.1q0.3 0.2 1 0.2h0.6q0.8 0 1.4-0.3q0.6-0.3 1.1-0.9q0.4-0.4 1-1.3q0.2-0.2 0.3-0.2q0.2 0 0.2 0.3q0 0.1 0 0.3q-0.3 0.6-0.3 1.1q0 0.5 0.2 0.8q0.3 0.2 0.7 0.2h1.3v0.1h1.4q0.3-1.8 1.2-3q0.8-1.2 1.8-1.2q0.6 0 1.1 0.3q0.5 0.3 1.2 1.1q0.3 0.2 0.8 0.2q0.2 0 0.5 0q0.2-0.1 0.7-0.2l-0.8 2.5q-0.4 0-0.9 0.1q-0.4 0.2-0.9 0.5q-1.3 0.9-2.2 1.3q-1 0.5-2 0.8l-0.4 1.7q0 0.3-0.1 0.4q-0.1 0.1-0.2 0.1q-0.1 0-0.2-0.2q-0.1-0.1-0.1-0.4l0.1-1.6zm2.2-2.5q0.7-0.1 1.3-0.3q0.6-0.2 1.7-0.7q-0.4-0.5-0.8-0.7q-0.3-0.2-0.7-0.2q-0.3 0-0.6 0.2q-0.2 0.1-0.4 0.3q-0.2 0.4-0.4 0.8q-0.1 0.3-0.1 0.6zm-6.8 4.9l1.3-1.2l1.3 1.3l-1.3 1.2zm-2.8-0.4l-1.3 1.3l-1.2-1.1l-1.2 1.2l-1.5-1.1l1.2-1.4l1.4 1.1l1.2-1.1zm-20.6-3.4q1.4 0 2.2-0.6q0.8-0.6 0.9-1.5q0-0.1 0-0.2v-0.2q0-1-0.5-2.4q-0.4-1.5-1-2.7q-0.4 1.6-0.7 2.4q-0.2 0.7-0.2 0.7l-0.2-0.1q0-1.5 0.4-3.9q0.5-2.5 1-3.8q0.1 0 0.1 0.1q0.1 0.1 0.1 0.2q0.4 1.2 0.9 3q0.4 1.6 0.6 3.1q0.3 1.5 0.3 2.2q0 1.4-0.3 2.6q-0.2 1-0.6 1.8q-0.4 0.7-1.2 1.2q-0.9 0.5-1.7 0.5q-0.2 0-0.5 0q-0.9-0.1-1.4-0.7q-0.6-0.7-0.6-2.3q0-0.1-0.1-0.2q0-0.1-0.1-0.1q-0.1 0-0.2 0.2q-0.1 0.1-0.1 0.2q-0.3 1.1-0.4 1.6q-0.3 0.9-0.6 1.5q-0.3 0.7-0.8 1.1q-0.9 0.8-2.5 1.3q-1.6 0.6-3.5 0.6q-0.3 0-0.3-0.1q0-0.1 0.2-0.2q1.1-0.4 2.5-1.2q1.7-1.1 2.9-2.3q1.5-1.5 1.9-3.1q0.1-0.7 0.6-1.3q0.4-0.8 0.9-0.9q0.1 0.2 0.1 0.4q0 0.2 0 0.5q0 0.2 0 0.6q0 0.5 0 0.5q0.1 0.9 0.6 1.3q0.4 0.2 1 0.2h0.3zm-11.1 2.9c-0.9 0.9-1.9 1.6-3 1.8q-0.1 0-0.2 0h-0.2q-1.5 0-2.4-1q-0.8-0.9-1.4-2.8c-0.1-0.3-0.1-0.5-0.1-0.7q-0.1-0.4-0.1-0.8q0-1.2 0.4-2.3q0.4-1.1 1.2-1.9q1-1.1 1.4-1.7q0.5-0.7 0.9-1.7q0.1-0.3 0.1-0.4q0-0.1 0.1-0.1q0.1 0 0.1 0.4q0 1-0.4 1.8q-0.5 0.8-1.9 2.5q-0.6 0.7-0.8 1.4q-0.3 0.6-0.3 1.3q0 0.5 0.1 0.9q0.2 0.5 0.4 1q0.5 0.9 1.2 1.3q0.7 0.4 1.5 0.4q1 0 2-0.6q1.1-0.6 2-1.8v-0.2q0-0.1 0-0.1q-0.1-0.1-0.2-0.2q-0.3-0.2-1.1-0.3q-0.6-0.1-1-0.2q-0.5-0.2-0.6-0.3q-0.2-0.2-0.2-0.6q0-0.1 0-0.3q0.1-0.3 0.1-0.4q0.3-1.3 1.4-2.9q1-1.5 2-2.3q0.2-0.1 0.4-0.2q0.2-0.1 0.4-0.1q0.2 0 0.4 0.1q0.1 0.1 0.1 0.3q0.1 0.1 0.1 0.3q0 0.3 0 0.4q0 0.4 0 0.6q-0.1 0.3-0.2 0.7q0 0.2-0.1 0.3q-0.2 0.2-0.3 0.2q-0.1 0-0.2-0.3q-0.1-0.1-0.2-0.2q-0.1-0.1-0.2-0.1q-0.1 0-0.2 0q-0.1 0.1-0.2 0.1q-0.5 0.3-1.1 0.9q-0.7 0.8-1 1.6q0 0.3 0.4 0.4q0.5 0.2 1.4 0.3q0.5 0 0.9 0.3q0.4 0.4 0.4 0.9q-0.3 2.6-1.8 4.3zm-18.9-6.6q-0.6 0.3-0.8 0.6c0.1 0 0.3 0 0.4 0q0.2 0.1 0.4 0.1h0.2q0.1 0 0.2-0.1q1 0.1 1 0.7q0 0.1-0.1 0.1q0 0.3-0.7 1.3q-0.7 1-1.1 1.4q-1 0.9-2.3 1.4q-1.3 0.6-2.6 0.6q-0.2 0-0.3 0q-0.8-0.1-1.3-0.3q-0.6-0.4-0.9-0.5q-0.5 0.4-1.1 0.6q-0.6 0.1-1.3 0.2q-0.2-0.1-0.4-0.1v0.1q-0.5-0.1-1.1-0.2q-0.5-0.2-0.7-0.5q0 0 0 0q-0.1 0.3-0.2 0.7q-0.2 0.4-0.3 0.5q-0.9 0-1.5-0.6q-0.6-0.7-0.9-1.9q-0.7 0.8-1.5 1.3q-0.9 0.6-2.2 0.7q0 0 0 0q0 0-0.1 0q-0.1 0-0.1-0.1q-1 0-1.5-0.3q-0.5-0.4-0.9-1.3q-0.2 0.7-1 1.4q-0.7 0.6-1.3 0.6q-0.6 0-1-0.3q-0.5-0.4-0.5-0.9q0-0.6 0.1-1.1q0.1-0.6 0.3-1q0.3-0.4 0.8-1.2q0.4-0.6 0.7-1l1-1.2c0.4-0.5 0.6-0.9 0.8-1.3q0.3-0.6 0.3-1.4c0.2 0.1 0.3 0.2 0.3 0.5q0.2 0.3 0.1 0.8l0.1 3.1q0 1.2 0.5 1.7q0.3 0.5 1.1 0.6l1.1-0.1q0.9 0 1.5-0.3q0.6-0.2 1.1-0.8q0.2-0.3 0.5-0.7q0.3-0.5 0.6-0.6c0-0.1 0-0.2 0.1-0.2q0.1-0.2 0.2-0.1h0.1c0.2 0.1 0.5 0.4 0.7 0.7q0.4 0.6 0.8 1.5q0.4 0.5 0.9 0.5q0.3 0 1.1 0v0.1h0.8q0.8 0 1.6-0.3q0.9-0.4 1.1-1q-0.3-0.9-1-2q-0.7-1-1.3-1.4v2.8q-0.1 0.2-0.3 0.2q-0.2 0-0.2-0.3l-0.3-2.9q-0.3 0-0.6 0q-0.3 0-0.7 0q0 0-0.1 0q-0.1-0.1-0.1-0.1q0-0.1 0-0.1q0.6-0.1 1-0.3q0.6-0.2 0.6-0.4q0-0.5 0-0.9q0-0.5 0.1-1q0-0.1 0-0.3q0.1-0.2 0.1-0.3q0.1-0.1 0.3-0.1h0.1q0.2 0.7 0.3 0.9q0.1 0.2 0.3 0.2q0.4-0.7 0.8-1.9q0.4-1.1 0.4-2q0-0.3 0-0.4q0-0.1 0-0.3l0.8-1q0.2 1.2 0.3 1.5q0.2 0.9 0.4 1.5q0.2 0.6 0.3 0.9l-0.1 1.7l-1.1-3.3q0 1-0.4 2.2q-0.4 1.2-0.9 2q0.5 0.7 0.9 1.2q0.6 0.8 0.9 1.3q0.4 0.7 0.5 1.3q0 0.1 0 0.3v0.2q0 1.1-0.4 2.1h2.2q1.7 0 3.5-0.9q-0.3-0.2-0.6-0.3q-0.4-0.1-0.8-0.1q-0.8 0-2.3 0.3q0.1-0.2 0.3-0.7q0.3-0.6 0.4-0.8q0.8-0.7 2.5-1.7q0.8-0.5 2.9-1.7q1.5-0.8 1.8-1.1l-0.5-0.1q0-0.1-0.1-0.1q0-0.1 0-0.1v-0.1l0.4-2.3q0.6 0.3 1.1 0.3c0.2 0 0.5 0 0.7-0.2q0.4-0.1 1-0.5q0.1 0 0.1 0q0.1 0 0.2 0.1q0.1 0 0.1 0.1q0 0.1 0 0.1q-0.1 0.2-0.2 0.9q-0.1 0.1-0.4 2q-0.2 0.1-0.5 0.2q-0.3 0.2-0.5 0.4q-0.3 0.3-1.1 0.8q-0.5 0.4-1.3 0.8q-0.7 0.3-1 0.4q-0.8 0.4-1.3 0.6zm-14.4 3.9q0.3 0.3 0.9 0.5q0-0.1 0-0.1v-0.1q0-0.5-0.3-1q-0.2-0.6-0.5-0.6q-0.1 0.1-0.2 0.2c0 0.1-0.1 0.2-0.1 0.4q0 0.4 0.2 0.7zm-7.3-1l-0.2-2.6q0 0.1-0.7 1q-0.3 0.5-0.7 1q-1 1-1 1.6q0 0.2 0.2 0.4q0.2 0.2 0.4 0.2q0.8 0 1.4-0.4c0.4-0.4 0.6-0.7 0.6-1.2zm-3.2-8.6l1.3 1l1-1.1l1.5 1.1l-1.1 1.3l-1.4-1l-0.9 1.1l-1.5-1zm-8.8-3.4q1.4 2.7 2.1 5.3q0.7 2.4 0.7 4.3q0 2.1-0.2 3.1q-0.3 1.3-1.2 2.1q-0.9 0.8-2.7 1.5q-0.1 0-0.2 0.1q-0.2 0-0.2 0q-0.2 0-0.2-0.1c0.1 0 0.1-0.1 0.1-0.2c0.1 0 0.1-0.1 0.2-0.3q0.3-0.2 1.5-1.6q1-1.1 1.5-1.8q0.7-1.2 0.7-2.2v-0.2q0-0.1 0-0.2q-0.2-0.9-0.4-1.6q-0.3-0.9-0.7-1.9q-0.4-1-0.8-1.9q-0.1 0.9-0.2 1.8q-0.1 1-0.1 1.6q0 0.3-0.1 0.5q-0.1 0.1-0.2 0.1q-0.2 0-0.2-0.7q-0.1-0.6-0.1-1.5q0-1.6 0.2-3.2q0.1-1.7 0.5-3zm-8.1 2q0.3-0.9 0.3-1q0.1-0.3 0.2-0.4q0.1-0.2 0.2-0.2q0.1 0 0.1 0.4q0.1 0.1 0.1 0.4q0.1 0.4 0.1 0.7q0.1 0.2 0.2 0.6q0.2 0.5 0.4 1.6q0.4 1.5 0.6 2.5q0.2 1.4 0.2 2.1q0 2.4-1.3 4.2q0.5 0.5 1.2 0.8q0.5 0.3 0.8 0.3q0.8 0 1.4-0.8q0.6-0.8 0.6-1.9v-0.3q-0.1-0.1-0.1-0.2q-0.1-0.9-0.5-2.1q-0.2-0.8-0.6-1.8q-0.1 1-0.2 1.7q-0.1 0.9-0.1 1.3q0 0.1-0.2 0.1q0 0-0.1-0.1q-0.1-0.1-0.1-0.2v-0.1q0-1.8 0.1-3.7q0.2-1.9 0.3-2.9q0.1-0.4 0.1-0.6q0.1-0.2 0.2-0.2q0.1 0 0.1 0.2q0.1 0.3 0.1 0.5q0.1 0.5 0.3 1q0.2 0.5 0.3 0.8q0.1 0.4 0.2 0.7q0.2 0.5 0.7 2.1q0.2 0.7 0.3 1.2q0.2 0.7 0.2 1.3q0 2.1-0.9 3.9q-0.6 1-1.1 1.5q-0.6 0.6-1.2 0.7q-0.7-0.1-1.6-0.7q-1-0.7-1.5-1.5q-0.6 0.6-2 1.1q-1 0.3-1.8 0.4h-0.4h-0.1c-0.1 0-0.1 0-0.1-0.1q0-0.1 0.3-0.2q0.8-0.5 1.6-1.1q0.8-0.5 1.7-1.3q-0.4-0.8-0.8-2q-0.2-1-0.2-1.5q0-0.9 0.2-1.9q0.2-0.8 0.7-2q0.4-1.2 0.9-2.5q0.1-0.3 0.2-0.8zm0.9 4q-0.1-0.5-0.6-1.8q-1.5 3.2-1.5 5q0 0.4 0.2 0.8q0.1 0.4 0.4 1q0.2 0.3 0.6 0.9q0.6-0.4 1.1-1.4q0.5-0.8 0.5-1.3q0 0 0-0.1v-0.2q0-0.5-0.2-1.2q-0.1-0.8-0.5-1.7zm-16.5 9.1q0 0-0.1 0q-1.2 0-1.8-0.6q-0.7-0.6-0.9-1.7q0-0.1-0.1-0.1q0 0-0.2 0.1q0 0.1 0 0.1q-0.4 0.7-0.6 1q-0.4 0.6-1 0.9q-0.6 0.3-1.6 0.3c-1.5 0-2.4-0.7-2.7-2.2q0-0.1-0.1-0.1q0 0-0.1 0.1q-0.1 0.1-0.1 0.2q-0.4 0.7-0.6 0.9q-0.4 0.6-0.9 0.8q-0.6 0.3-1.5 0.3q-0.3 0-0.6 0q-0.8-0.1-1.4-0.6q-0.7-0.6-0.9-1.7q0-0.1-0.1-0.1q0 0-0.1 0.1q-0.1 0.1-0.1 0.1q-0.4 0.7-0.6 1q-0.4 0.6-1 0.9q-0.6 0.3-1.6 0.3q0 0 0 0q-0.9 0-1.6-0.3q-0.9-0.4-0.9-1.3q0-1 0-2.5q-0.1-1.5-0.1-3.1q-0.1-1.7-0.1-2.7q0-0.5-0.2-1.1q-0.2-0.7-0.5-1.3l1-2.4q0.4 1.5 0.6 3.3q0.2 1.5 0.2 2.9q0.1 1.3 0.1 3v1.8q0 0.8 0.4 1.1q0.2 0.2 0.5 0.2h0.9q0.8 0 1.4-0.3q0.6-0.3 1.1-0.9q0.4-0.4 1-1.3q0.2-0.3 0.3-0.3q0.3 0.1 0.3 0.4q0 0-0.1 0.1q0 0.1 0 0.2q-0.3 0.5-0.3 1.1q0 0.4 0.2 0.7q0.3 0.3 0.7 0.3h1.3h0.6q0.7 0 1.2-0.3q0.6-0.3 1.1-0.8q0.3-0.4 0.9-1.3q0.1-0.1 0.2-0.2q0 0 0.1 0q0.2 0 0.2 0.3q0 0.1 0 0.2q0 0.1 0 0.1q-0.3 0.6-0.3 1.1q0 0.4 0.2 0.7q0.3 0.2 0.7 0.2h0.6h1q0.8 0 1.4-0.3q0.6-0.3 1.1-0.9q0.4-0.4 1-1.3q0.2-0.3 0.3-0.3q0.3 0.1 0.2 0.4q0 0 0 0.1q0 0.1 0 0.2q-0.3 0.5-0.3 1.1q0 0.4 0.2 0.7q0.3 0.3 0.7 0.3h1.3h0.9q1 0 1.7-0.5q0.8-0.5 1.3-1.6q0.1-0.2 0.3-0.2q0.1 0 0.1 0.3v0.1q-0.1 0.5-0.1 0.6q-0.1 0.3-0.1 0.5q0 0.2 0.1 0.3q0.2 0.5 0.9 0.5q0.4 0 0.9-0.2q0.4-0.2 0.8-0.6l-0.2-0.5l0.8-2.1q0.2 0.6 0.2 0.9q0.1 0.4 0.1 0.7q0 0.7-0.3 1.5q0.1 0.1 0.3 0.1q0.3 0 0.8-0.2q0.4-0.2 0.7-0.5q0-0.2-0.1-0.4q-0.1-0.3-0.1-0.4l0.9-2.1q0.3 0.9 0.3 1.6q0 0.4-0.1 0.9q-0.1 0.5-0.4 1.1c-0.4 1-0.7 1.6-1 1.9q-0.5 0.5-1.3 0.6q-0.4 0-0.6-0.1q-0.2-0.1-0.2-0.3q0-0.1 0-0.2q0-0.1 0.1-0.2q-0.4 0.4-1 0.6q-0.6 0.3-1.2 0.3q-0.2 0-0.3 0q-0.1 0-0.2-0.1q-0.4-0.2-0.5-0.7q-0.2-0.4-0.2-1.4c0 0.1 0 0.1-0.1 0.2q-0.1 0.1-0.1 0.1q-0.7 1.1-1.3 1.5q-0.6 0.4-1.7 0.4zm-0.7-8.7l-1.3 1.3l-1.2-1.1l-1.2 1.2l-1.5-1.1l1.2-1.4l1.4 1l1.2-1zm-10.6 0.9q0-0.1 0.1-0.2q0.6-0.3 1.2-0.7q0.6-0.4 0.9-0.7q0 0-0.1 0q0-0.1-0.1-0.1h-0.2h-0.6q-0.5 0-0.6-0.1q-0.1-0.1-0.2-0.3q0-0.4 0.1-0.7q0.2-0.4 0.5-0.9q0.5-0.6 0.9-0.9q0.4-0.3 0.8-0.3q0.2 0 0.4 0.2q0.1 0.1 0.1 0.4q0 0.4-0.1 0.6q-0.1 0.3-0.2 0.3q-0.2 0-0.2-0.1q0 0-0.1-0.2q0 0 0 0q-0.1-0.1-0.1-0.1q-0.4 0.2-0.6 0.3q-0.3 0.2-0.4 0.6q0.8 0 1.2 0q0.4 0.1 0.4 0.3q0 1.3-0.8 2q-0.2 0.2-1 0.5q-0.8 0.3-1.1 0.3q-0.2 0-0.2-0.2zm-5.4-1l1.3-1.2l1.4 1.2l-1.3 1.2zm-9.5-1.4l1.3-1.2l1.4 1.1l-1.3 1.3zm2.5 7q0-0.1 0-0.1q0-0.3-0.1-0.5q-0.1-0.3-0.3-0.5q0 0.4-0.2 0.6q-0.3 0.2-0.6 0.2q-0.3 0-0.6-0.3q-0.2-0.3-0.3-0.7q0-0.1 0.1-0.2q0.1-0.6 0.3-1.2q0.2-0.8 0.6-1.3q0.2-0.2 0.3-0.3q0.2-0.1 0.4-0.1q0.2 0 0.3 0.1c0.1 0.1 0.2 0.2 0.3 0.3q0.4 0.6 0.6 1.2q0.1 0.6 0.1 1.2q0 0.6-0.1 1.1q-0.1 0.5-0.3 0.8q-0.4 0.7-0.5 1q-0.4 0.5-1.4 1q-1.1 0.5-2.5 0.8q-1.4 0.3-2.8 0.3q-1.9 0-3.3-0.5q-1.5-0.5-1.9-1.4q-0.2-0.5-0.3-1q-0.1-0.4-0.1-0.9q0-0.8 0.3-1.7q0.3-0.7 0.9-1.6q0.3-0.5 1.5-1.2q1-0.5 2.1-1.1q1.1-0.7 1.5-1.5q0 1.2-1.2 2.1q-1.1 0.7-2.3 1.4q-1.4 0.8-1.7 1.7q-0.2 0.5-0.2 0.8q0 1.3 1.8 2q1.5 0.7 3.9 0.7q1.6 0 3.1-0.3q1.5-0.3 2.6-0.9zm-21.1 5.7l1.2-1.1l1.4 1.3l-1.3 1.2zm1.5-2.7q-0.6 0.3-2 0.2q0 0 0 0q-0.7 0-1.3-0.2q-0.6-0.2-1.1-0.7q-0.7 0.4-1.3 0.6q-0.9 0.4-2.1 0.3q-0.1 0-0.3 0h-0.8q-0.5 0-0.9-0.3q-0.2-0.2-0.7-0.7q0 0-0.3 0.9c-0.2 0.8-0.5 1.4-0.8 1.7q-0.6 0.6-1.4 0.9q-0.8 0.3-1.9 0.5q-0.6 0-2.3 0.2c-0.6 0-0.8 0-0.8-0.1q0 0 0.1-0.1q0.1-0.1 0.4-0.1q1.3-0.4 1.9-0.7q1-0.4 1.8-0.8q0.9-0.5 1.4-1.2q0.5-0.6 0.8-1.3q0.1-0.1 0.4-1q0.3-0.5 0.5-0.8q0.2-0.2 0.4-0.2q0.3 0 0.9 0.3q0.7 0.4 0.9 0.4h0.8v0.1h0.4q1.2 0 1.7-0.2q-0.1-0.2-0.2-0.5q0-0.2 0-0.5q0-0.4 0-0.8q0.1-0.3 0.3-0.8q0.2-0.5 0.5-1q0.4-0.6 0.9-1q0.2-0.1 0.4-0.3q0.5-0.2 0.7-0.2q0.2 0 0.5 0.2q0.2 0.2 0.4 0.7q0.1 0.6 0.1 1.2q0 0.9-0.3 1.7q-0.2 0.7-0.6 1.2q0.2 0.2 0.4 0.2q0 0.1 0.1 0.1h1.4q0.6 0 1.3-0.3q1-0.3 1.4-1q-0.1-0.6-0.2-0.8q0-0.3-0.2-0.4q0 0.1-0.1 0.2c-0.1 0.1-0.1 0.3-0.2 0.3q0 0.1-0.1 0.1q-0.1 0-0.1-0.1c0-0.1-0.1-0.1 0-0.2v-0.1q0-0.8 0.2-1.7q0.1-0.8 0.3-1.3q0.1-0.3 0.3-0.3q0.1 0 0.2 0.1q0.1 0.1 0.1 0.3q0.4 0.6 0.5 1.2q0.2 0.7 0.2 1.3q0 0.8-0.2 1.7q-0.3 1.1-0.9 2q-0.6 0.8-1.5 1.1zm-5.9-10l1.2-1.2l1.4 1.1l-1.2 1.3zm1.5 6.6q0.1 0.2 0.5 0.4q0.5-0.3 0.8-0.7q0-0.6-0.1-0.9q-0.2-0.3-0.5-0.3q-0.3 0-0.6 0.2q-0.3 0.3-0.4 0.6q0 0.4 0.3 0.7zm-21.3 3.7q0 0-0.1 0q-0.9 0-1.6-0.3q-0.9-0.4-0.9-1.3q0-1 0-2.5q-0.1-1.5-0.1-3.1q-0.1-1.7-0.1-2.7q0-0.5-0.2-1.1q-0.2-0.7-0.5-1.3l1-2.4q0.4 1.5 0.6 3.3q0.2 1.5 0.2 2.9q0.1 1.3 0.1 3v1.8q0 0.8 0.4 1.1q0.2 0.2 0.8 0.2h1.2q1 0 1.7-0.5q0.8-0.5 1.3-1.6q0.1-0.2 0.3-0.2q0.1 0 0.1 0.3v0.1q-0.1 0.5-0.1 0.6q-0.1 0.3-0.1 0.5q0 0.2 0.1 0.3q0.2 0.5 0.9 0.5q0.4 0 0.9-0.2q0.4-0.2 0.8-0.6l-0.2-0.5l0.8-2.1q0.2 0.6 0.2 0.9q0.1 0.4 0.1 0.7q0 0.7-0.3 1.5q0.1 0.1 0.3 0.1q0.4 0 0.8-0.2q0.4-0.2 0.8-0.5q-0.1-0.2-0.2-0.4q0-0.3-0.1-0.4l0.9-2.1q0.3 0.9 0.3 1.6q0 0.4-0.1 0.9q-0.1 0.5-0.3 1.1q-0.7 1.4-1.1 1.9q-0.5 0.5-1.3 0.6q-0.4 0-0.6-0.1q-0.2-0.1-0.2-0.3q0-0.1 0-0.2q0-0.1 0.1-0.2q-0.4 0.4-1 0.6q-0.6 0.3-1.2 0.3q-0.2 0-0.3 0q-0.1 0-0.2-0.1q-0.4-0.2-0.5-0.7q-0.1-0.4-0.1-1.4q-0.1 0.1-0.2 0.2q-0.1 0.1-0.1 0.1q-0.7 1.1-1.3 1.5q-0.6 0.4-1.7 0.4zm-8.4 7.8l-1.2-1.1l-1.1 1.2l-1.5-1.1l1.2-1.4l1.4 1l1.1-1l1.4 1.1zm-1.9-5.5q-1.4 0-2.3-0.9q-0.9-0.9-1.4-2.9c-0.1-0.2-0.2-0.4-0.2-0.7q0-0.3 0-0.8q0-1.1 0.4-2.2q0.4-1.2 1.1-2q1.1-1 1.5-1.7q0.4-0.6 0.9-1.7q0-0.2 0-0.3q0.1-0.2 0.1-0.1q0.1 0 0.1 0.4q0 0.9-0.4 1.8q-0.4 0.8-1.9 2.4q-0.5 0.8-0.8 1.4q-0.3 0.7-0.3 1.3q0 0.5 0.2 1q0.1 0.5 0.4 1q0.5 0.8 1.2 1.2q0.7 0.5 1.5 0.5q1 0 2-0.6q1-0.7 1.9-1.8l0.1-0.2q0-0.1-0.1-0.2c0 0-0.1-0.1-0.2-0.2q-0.3-0.1-1.1-0.3q-0.5-0.1-1-0.2q-0.4-0.1-0.6-0.3q-0.2-0.1-0.2-0.5q0-0.2 0.1-0.4q0-0.2 0-0.4q0.4-1.3 1.4-2.8q1-1.5 2.1-2.3q0.1-0.2 0.3-0.2q0.2-0.1 0.5-0.1q0.2 0 0.3 0.1q0.2 0.1 0.2 0.2q0 0.2 0.1 0.4q0 0.2 0 0.4q0 0.3-0.1 0.6q0 0.2-0.1 0.6q-0.1 0.2-0.2 0.4q-0.1 0.1-0.2 0.1q-0.2 0-0.2-0.2q-0.1-0.2-0.2-0.2q-0.1-0.1-0.3-0.1q0 0-0.1 0q-0.1 0-0.2 0.1q-0.5 0.2-1.1 0.9q-0.7 0.7-1 1.6q0 0.2 0.4 0.4q0.4 0.2 1.4 0.2q0.5 0 0.9 0.4q0.4 0.4 0.4 0.8q-0.4 2.6-1.9 4.3q-1.2 1.5-2.9 1.8q-0.1 0-0.3 0zm-80.9-60.5l-0.5 5.9l-5.4-3.6l0.5-6zm24.1 23.4l-1.9 7.2h-0.8q-0.4 0-1.2 0.1q-0.9 0.1-2.1 0.5l-4.1 1.1l-7 1.8l-2.4 0.7l-3.8 0.7l-2.1 0.4l-2.2 0.3h-3.1q-0.4 0-1 0.1h-7q-1.3 0-2 0.8q-0.2 0.4-0.6 1.4q0 0-0.3 1q-0.2 0.9-0.4 1.7q-0.7 2.9-1.1 3.9q-0.3 1-1.1 2.1q-2.1 2.6-6.9 2.6q-1.5 0-2.5-0.2q-0.7 0-1.2 0q-0.4-0.1-2-0.5q-3.2-0.6-6.6-1.7q-1.8-0.5-2.1-1.3q-0.1-0.2-0.1-0.3q0-0.6 1.2-0.9l11-2.6l5.1-1.2l1-0.3q0.4-0.1 0.8-0.5q1-0.7 3-7.2q0.9-2.7 2.1-3.6l1.2-0.7l0.9-0.4q1.3-0.5 2.9-0.5h7.2q1.7 0 3.1-0.1q1.5-0.1 3.1-0.3q1.6-0.2 2.8-0.6q0.5-0.1 1.1-0.2q0.5-0.2 1-0.4q-0.6-0.6-1-1.4l-1-1.6q-0.9-1.8-1.5-3.3q-0.6-1.5-0.6-2.8q0-0.3 0.1-0.7q0.1-0.5 0.2-0.7q0-0.1 0.2-0.6q0.1-0.5 0.3-0.9q1.1-2.6 2.4-3.9q0.6-0.6 1.4-0.8q0.8-0.3 1.6-0.3q1.7 0 3.6 0.9q2 0.9 3.8 2.5l-2.4 6.1q-1.9-1.8-3.4-2.6q-1.6-0.8-3.2-0.8h-0.6l0.3 0.8q0.7 1.9 2.5 4.4c1.3 1.8 2.6 3.3 4 4.5q0.9-0.3 5.1-1q4.2-0.7 6.3-0.7zm-66.5-11.4q4.8 5.4 6 8.8q0.3 0.6 0.4 1.3q0.1 0.6 0.1 1.3q0 0.8-0.1 1.5q0 0.8-0.3 1.6q-0.6 2.9-2.1 4.9q-1.2 1.8-4.8 3.2q-2 0.7-4.7 1.3q-2.8 0.4-5.7 0.4h-6.1q-3.5 0-6.3-4.8l-2.5-4.1l-0.4-0.7q-1.6 0-3.3 2.7q-0.6 1-0.9 1.9q-0.3 0.8-0.3 1.5q0 0.4 0.1 0.8q1.8 1.1 6.1 2.2q3.1 0.8 3.7 2.4q0.6 1.6 0.6 3.4q0 1.7-0.6 3.7q-1.3 4.3-4.7 7q-4.1 3.3-9.8 3.3q-4.8 0-8.8-3.2q-4-3.2-6.1-8.7q-0.7-2-1.2-4.1q-0.5-2.1-0.8-4.8q-0.2-1.8-0.2-3q0-2.1 0.7-2.1q0.4 0 0.7 0.7l0.2 1.3l0.3 2.5q0.4 1.9 1 3.6q3.8 10.4 12.3 10.4q3.6 0 6.8-1.7q3.3-1.7 4.6-4.5c-2.3-0.4-4-0.9-5.2-1.5q-1.9-1-2.5-2.5q-0.5-1.4-0.5-3.3q0-1.7 0.4-3.7q1-4.2 3.3-7.3q2.5-3.4 5.6-3.4c0.6 0 1.8 1.3 3.6 3.8q2.6 3.8 6.8 3.8h6q3.2 0 6-0.8q0.7-0.2 1.4-0.4q0.8-0.2 1.4-0.5q0.7-0.2 1.3-0.6q0.6-0.3 1.2-0.7q-0.3-1-2.3-3.7q-1.8-2.6-2.9-3.5zm5.1 26.5l-1.3 6h-10.6l1.2-6zm-14.8 11.6l-0.4 6l-5.4-3.7l0.4-5.9zm-17.3 10l-1.3 6.1h-10.5l1.2-6.1zm265.2-7.6z" />
			<path id="Path 2" class="s1" d="m0 145.7v-31.4h506.8v31.4zm18.5-42.4l-11.7-1.1l-0.4 4.5l-1.6-0.2l1-10.9l1.6 0.2l-0.5 4.5l11.7 1.2zm0.9-7.4l-9.5-1.8l0.3-1.5l1.4 0.3q-0.9-0.8-1.1-1.4q-0.3-0.5-0.2-1.1q0.2-0.8 0.8-1.6l1.4 0.8q-0.4 0.6-0.5 1.2q-0.1 0.6 0.1 1q0.3 0.5 0.8 0.8q0.8 0.5 1.8 0.7l5 0.9z" />
			<path id="Path 3" fill-rule="evenodd" class="s1" d="m21 82.7q0.5 1.1 0.6 2.1q0.1 0.9-0.2 1.9q-0.4 1.6-1.3 2.2q-1 0.7-2.2 0.3q-0.7-0.2-1.1-0.6q-0.5-0.5-0.7-1.1q-0.2-0.7-0.2-1.4q0-0.5 0.1-1.5q0.3-2 0.2-3q-0.3-0.2-0.4-0.2q-1-0.2-1.5 0.1q-0.7 0.5-1 1.7q-0.3 1.2-0.1 1.8q0.3 0.7 1.2 1.2l-0.6 1.6q-0.9-0.5-1.4-1.2q-0.5-0.7-0.6-1.7q-0.1-1 0.3-2.3q0.3-1.2 0.8-1.9q0.4-0.7 1-0.9q0.5-0.3 1.2-0.3q0.4 0.1 1.4 0.4l2.1 0.6q2.2 0.6 2.9 0.6q0.6 0.1 1.2-0.1l-0.5 1.7q-0.5 0.2-1.2 0zm-3.6-0.8q0.2 1-0.1 2.8q-0.1 1.1 0 1.5q0.1 0.5 0.3 0.8q0.3 0.3 0.7 0.5q0.7 0.1 1.2-0.2q0.6-0.4 0.8-1.4q0.2-0.9 0-1.8q-0.2-0.8-0.8-1.3q-0.4-0.5-1.5-0.7zm8.2-9l-1.2-0.5q1 1.5 0.4 3.2q-0.4 1.1-1.4 1.8q-0.9 0.7-2.1 0.8q-1.3 0.1-2.7-0.5q-1.3-0.5-2.3-1.4q-0.9-0.9-1.1-2.1q-0.3-1.1 0.2-2.3q0.3-0.8 0.9-1.4q0.6-0.5 1.3-0.7l-4.5-1.7l0.6-1.6l12.4 4.9zm-6.3 3.2q1.7 0.7 2.8 0.3q1.2-0.4 1.5-1.4q0.4-1-0.1-2.1q-0.6-1.1-2.2-1.7q-1.9-0.8-3-0.4q-1.2 0.4-1.6 1.5q-0.4 1.1 0.2 2.1q0.6 1 2.4 1.7zm10.8-13l-1.2-0.7c0.6 1.2 0.6 2.4 0 3.6q-0.4 0.8-1 1.3q-0.6 0.6-1.2 0.7q-0.6 0.1-1.3-0.1q-0.5-0.2-1.4-0.7l-5.3-2.8l0.7-1.5l4.8 2.5q1.1 0.6 1.5 0.7q0.7 0.2 1.2-0.1q0.6-0.2 0.9-0.9q0.4-0.7 0.3-1.5q0-0.7-0.5-1.3q-0.4-0.6-1.5-1.2l-4.6-2.4l0.7-1.5l8.6 4.6zm2.5-11.2l1-1.3q1.3 1.2 1.5 2.7q0.2 1.4-0.7 2.8q-1.1 1.7-2.8 2q-1.7 0.3-3.8-1q-1.3-0.9-2-2q-0.7-1.1-0.6-2.4q0.1-1.2 0.8-2.3q0.8-1.4 2.1-1.8q1.2-0.4 2.5 0.2l-0.6 1.5q-1-0.3-1.7-0.1q-0.7 0.2-1.2 0.9q-0.6 1.1-0.3 2.2q0.3 1.2 1.9 2.3q1.6 1.1 2.8 0.9q1.1-0.1 1.8-1.1q0.5-0.9 0.4-1.8q-0.2-0.9-1.1-1.7zm5.8-4.5l1.3 0.7q-0.3 0.7-0.6 1.1q-0.6 0.8-1.1 1q-0.5 0.2-1 0.1q-0.5-0.2-1.6-1.1l-4.4-3.5l-0.8 1l-1-0.8l0.8-1l-1.9-1.5l0.2-1.9l2.6 2.1l1-1.4l1.1 0.8l-1 1.4l4.4 3.5q0.6 0.5 0.8 0.5q0.2 0.1 0.4 0q0.2-0.1 0.4-0.4q0.2-0.2 0.4-0.6z" />
			<path id="Path 4" fill-rule="evenodd" class="s1" d="m42.8 39.7l1.3-1.1q0.8 1.3 0.7 2.7q-0.1 1.4-1.3 2.7q-1.4 1.6-3.2 1.7q-1.8 0-3.5-1.6q-1.8-1.8-2-3.6q-0.1-1.9 1.2-3.5q1.3-1.4 3.1-1.5q1.8 0 3.6 1.7q0.1 0.1 0.3 0.3l-4.8 5.5q1.2 1 2.4 1q1.1 0 1.9-1q0.6-0.6 0.7-1.5q0.1-0.8-0.4-1.8zm-5.6 2.3l3.6-4.1q-0.9-0.8-1.7-0.8q-1.2-0.1-2.1 0.9q-0.7 0.8-0.7 1.9q0.1 1.2 0.9 2.1zm15.3-7.3l-0.9-1.1q0.2 2.1-1.3 3.4c-0.4 0.4-0.9 0.7-1.4 0.8q-0.8 0.3-1.3 0.1q-0.6-0.1-1.2-0.5q-0.4-0.4-1.1-1.2l-3.9-4.6l1.2-1.1l3.5 4.1q0.9 1 1.2 1.3q0.6 0.4 1.2 0.3q0.6 0 1.1-0.5q0.6-0.5 0.8-1.3q0.3-0.7 0-1.4q-0.2-0.7-1-1.6l-3.4-4l1.2-1.2l6.4 7.5zm3.2-2.6l-5.6-8.1l1.2-0.9l0.8 1.2q-0.1-1.2 0.1-1.8q0.2-0.5 0.6-0.9q0.7-0.5 1.7-0.6l0.4 1.7q-0.7 0-1.1 0.4c-0.3 0.2-0.5 0.5-0.6 0.8q-0.2 0.6 0 1.2q0.3 0.9 0.9 1.7l3 4.3zm10.2-7l-6.4-12.1l1.6-0.9l6.4 12.1zm4.2-2.4l-3.8-9.2l1.3-0.6l0.6 1.3q0.3-1.9 2.1-2.7q0.8-0.4 1.6-0.4q0.8 0 1.4 0.3q0.5 0.4 0.9 1q0.3 0.4 0.7 1.4l2.4 5.7l-1.5 0.6l-2.3-5.5c-0.3-0.7-0.6-1.1-0.8-1.4q-0.4-0.4-1-0.4q-0.5-0.1-1.1 0.2q-1 0.4-1.4 1.3q-0.4 1 0.3 2.7l2.1 5zm12.6-6.6l0.7 1.3q-0.6 0.4-1.1 0.5c-0.6 0.2-1.1 0.3-1.4 0.2c-0.4-0.1-0.7-0.2-0.9-0.5q-0.4-0.4-0.8-1.8l-1.8-5.5l-1.1 0.4l-0.4-1.2l1.1-0.4l-0.7-2.4l1.2-1.5l1.1 3.3l1.5-0.5l0.4 1.3l-1.5 0.5l1.7 5.5q0.3 0.7 0.4 0.9q0.1 0.2 0.4 0.2q0.2 0.1 0.5-0.1q0.3 0 0.7-0.2z" />
			<path id="Path 5" fill-rule="evenodd" class="s1" d="m90.6 12.2l1.7-0.2q0 1.6-0.9 2.7q-0.9 1.1-2.5 1.5q-2.1 0.4-3.6-0.6q-1.5-1-2-3.4q-0.5-2.4 0.4-4.1q0.9-1.6 2.8-2.1q1.9-0.4 3.4 0.6q1.5 1 2 3.4q0.1 0.2 0.1 0.5l-7 1.7q0.5 1.5 1.5 2.2q0.9 0.7 2.1 0.4q0.9-0.2 1.4-0.8q0.5-0.7 0.6-1.8zm-5.8-1.4l5.3-1.3q-0.4-1.2-1-1.7q-1-0.7-2.2-0.5q-1.1 0.3-1.7 1.3q-0.6 0.9-0.4 2.2zm10.3 3.9l-1.2-9.9l1.5-0.2l0.1 1.5q0.5-1.2 0.9-1.6q0.4-0.3 1-0.4q0.8-0.1 1.7 0.3l-0.3 1.6q-0.7-0.3-1.3-0.2q-0.5 0.1-0.9 0.5q-0.4 0.4-0.5 1q-0.1 0.9 0 2l0.7 5.2zm6.4 3l-0.4-13.8l1.4-0.1l0.1 1.3q0.5-0.8 1.1-1.2q0.7-0.4 1.6-0.4q1.3-0.1 2.2 0.6q1 0.6 1.5 1.8q0.5 1.2 0.6 2.6q0 1.5-0.5 2.8q-0.5 1.2-1.5 1.9q-1 0.7-2.1 0.7q-0.8 0.1-1.5-0.3q-0.6-0.3-1.1-0.8l0.2 4.8zm1.2-8.8q0.1 1.9 0.8 2.8q0.8 0.9 1.9 0.9q1.1 0 1.8-1q0.8-1 0.7-3q0-1.9-0.8-2.8q-0.8-0.9-1.9-0.9q-1 0-1.8 1.1q-0.8 1-0.7 2.9zm9.1 4.9l0.6-10l1.5 0.1l-0.1 1.5q0.6-1 1.1-1.3q0.5-0.3 1.1-0.2q0.8 0 1.6 0.6l-0.6 1.5q-0.6-0.4-1.2-0.4q-0.5 0-1 0.3q-0.4 0.3-0.6 0.8q-0.4 0.9-0.4 2l-0.4 5.2zm13-9.7l-1.3-0.3l-1.7-2.9l2.2 0.3zm0.3 8.2l1.6 0.5q-0.6 1.5-1.8 2.1q-1.2 0.7-2.9 0.4q-2-0.4-3-1.9q-1.1-1.6-0.7-4q0.4-2.5 1.9-3.6q1.4-1.2 3.4-0.8q1.9 0.3 2.9 1.8q1 1.6 0.6 4q0 0.2-0.1 0.5l-7.1-1.2q-0.1 1.6 0.5 2.6q0.7 1 1.9 1.2q0.9 0.1 1.6-0.2q0.7-0.4 1.2-1.4zm-4.8-3.6l5.3 0.9q0.1-1.2-0.3-2q-0.7-1.1-1.9-1.3q-1.1-0.2-2 0.5q-0.9 0.6-1.1 1.9zm11.9 7.2l-0.1 1.5q-0.7-0.1-1.2-0.2q-0.9-0.2-1.3-0.6q-0.4-0.5-0.5-1q0-0.5 0.3-1.9l1.4-5.6l-1.1-0.3l0.3-1.3l1.2 0.3l0.6-2.4l1.8-0.5l-0.9 3.3l1.6 0.5l-0.3 1.3l-1.6-0.5l-1.4 5.7q-0.2 0.7-0.2 0.9q0.1 0.2 0.2 0.4q0.2 0.1 0.5 0.3q0.3 0 0.7 0.1z" />
			<path id="Path 6" fill-rule="evenodd" class="s1" d="m140.8 17l1.5 0.8q-0.9 1.3-2.2 1.7q-1.3 0.4-2.9-0.2q-1.9-0.8-2.7-2.5q-0.7-1.7 0.1-4c0.6-1.5 1.4-2.6 2.5-3.2q1.6-0.8 3.5-0.1q1.8 0.6 2.5 2.4q0.7 1.7-0.1 4q0 0.2-0.1 0.4l-6.8-2.5q-0.5 1.5 0 2.7q0.5 1.1 1.6 1.5q0.9 0.3 1.6 0.1q0.8-0.2 1.5-1.1zm-4.2-4.5l5.1 1.9q0.3-1.2 0-2q-0.4-1.2-1.5-1.6q-1.1-0.4-2.1 0q-1 0.5-1.5 1.7zm9.5 10.2l11.1-9.2l1.6 1l-2 14.8l-1.7-1.1l0.7-4.4l-4.8-2.9l-3.3 2.8zm6.1-2.8l3.8 2.4l0.7-4.1q0.3-1.8 0.6-2.9q-0.9 1-1.9 1.9zm6.8 7.5l1.5 0.8q-0.5 0.8-0.3 1.7q0.1 0.8 1 1.5q0.9 0.7 1.6 0.7q0.7-0.1 1.1-0.6q0.4-0.4 0.2-1q-0.2-0.4-1-1.5q-1.2-1.5-1.5-2.2q-0.4-0.7-0.3-1.4q0.1-0.7 0.5-1.3q0.4-0.6 1-0.8q0.5-0.3 1.1-0.3q0.5 0 1.2 0.3q0.6 0.2 1.2 0.7q0.9 0.7 1.4 1.6q0.5 0.8 0.5 1.5q-0.1 0.7-0.5 1.6l-1.4-0.9q0.4-0.7 0.2-1.3q-0.2-0.7-0.9-1.3q-0.9-0.7-1.5-0.7q-0.6 0-0.9 0.4q-0.2 0.3-0.2 0.6q0 0.4 0.2 0.8q0.1 0.2 0.9 1.2q1.1 1.5 1.5 2.2q0.3 0.7 0.3 1.3q0 0.8-0.5 1.4q-0.5 0.7-1.4 1q-0.8 0.3-1.7 0.1q-1-0.3-1.9-1q-1.5-1.2-1.8-2.4q-0.3-1.3 0.4-2.7zm7.7 6.1l1.3 1q-0.6 0.8-0.4 1.7q0 0.8 0.9 1.6q0.8 0.8 1.5 0.8q0.7 0.1 1.1-0.4q0.4-0.4 0.3-1q-0.1-0.4-0.9-1.6q-0.9-1.6-1.2-2.4q-0.3-0.7-0.2-1.4q0.2-0.7 0.7-1.2q0.4-0.5 1-0.7q0.6-0.2 1.2-0.1q0.5 0 1.1 0.3q0.6 0.4 1.1 0.9q0.9 0.8 1.3 1.7c0.2 0.5 0.3 1.1 0.3 1.5q-0.1 0.7-0.6 1.6l-1.3-1q0.4-0.7 0.3-1.3q-0.1-0.7-0.8-1.4q-0.8-0.8-1.4-0.9c-0.4 0-0.7 0.1-1 0.3q-0.2 0.3-0.2 0.6q0 0.4 0.1 0.8q0.2 0.2 0.8 1.3c0.6 1.1 1 1.9 1.2 2.3q0.3 0.7 0.2 1.4q-0.1 0.7-0.6 1.4q-0.6 0.6-1.4 0.8q-0.9 0.2-1.8-0.1q-0.9-0.4-1.8-1.2q-1.3-1.3-1.5-2.6q-0.2-1.3 0.7-2.7z" />
			<path id="Path 7" fill-rule="evenodd" class="s1" d="m178.5 46l0.9 1.5q-1.3 0.7-2.7 0.4q-1.3-0.3-2.4-1.6q-1.4-1.7-1.2-3.6q0.2-1.8 2-3.4q1.8-1.7 3.7-1.6q1.8 0.1 3.1 1.7q1.2 1.5 1.1 3.4q-0.3 1.8-2.1 3.4q-0.1 0.1-0.3 0.3l-4.7-5.6q-1.1 1.1-1.2 2.3q-0.1 1.2 0.6 2.2q0.6 0.7 1.4 0.8q0.7 0.2 1.8-0.2zm-1.5-6l3.5 4.2q0.9-0.9 1-1.7q0.2-1.2-0.6-2.2q-0.7-0.9-1.8-1q-1.1-0.1-2.1 0.7zm1.5 11.3l7.8-5.8l0.9 1.2l-1.2 0.9q1.1-0.2 1.7 0q0.5 0.2 0.9 0.7q0.4 0.7 0.5 1.8l-1.5 0.4q-0.1-0.7-0.5-1.2q-0.3-0.5-0.8-0.6q-0.5-0.2-1.1 0q-0.8 0.3-1.7 0.9l-4.1 3.1zm3.8 5.2l8.4-4.8l0.7 1.3l-1.1 0.7q0.8 0 1.5 0.5q0.8 0.5 1.2 1.3q0.6 1 0.5 1.8q0 0.9-0.6 1.5q2 0.2 2.9 1.9q0.7 1.3 0.4 2.4q-0.3 1.1-1.8 1.9l-5.8 3.3l-0.7-1.4l5.3-3.1q0.8-0.5 1.1-0.8q0.3-0.4 0.3-0.9q0.1-0.5-0.2-1q-0.5-1-1.4-1.2q-0.9-0.3-2.2 0.5l-4.9 2.8l-0.8-1.5l5.5-3.2q0.9-0.5 1.2-1.1q0.3-0.7-0.2-1.5q-0.3-0.6-0.9-1q-0.6-0.3-1.3-0.2q-0.8 0.1-1.9 0.8l-4.4 2.5z" />
			<path id="Path 8" fill-rule="evenodd" class="s1" d="m194.8 75.9l0.4 1.7q-1.6 0.1-2.7-0.6q-1.2-0.7-1.8-2.3q-0.8-2.1 0-3.8q0.8-1.7 3-2.5q2.2-1 3.9-0.3c1.2 0.5 2 1.4 2.5 2.7q0.7 1.8-0.1 3.5q-0.8 1.7-3 2.6q-0.1 0-0.4 0.1l-2.6-6.9q-1.5 0.7-2 1.8q-0.5 1.1 0 2.3q0.3 0.8 1 1.3q0.6 0.4 1.8 0.4zm0.4-6.2l2 5.2q1.1-0.6 1.5-1.3q0.6-1.1 0.1-2.3q-0.4-1.1-1.4-1.6q-1-0.4-2.2 0zm-2.1 11.1l9.3-2.6l0.4 1.4l-1.3 0.4q1.8 0.6 2.4 2.6q0.2 0.9 0.1 1.7q-0.1 0.8-0.5 1.3q-0.4 0.5-1.1 0.9q-0.4 0.2-1.5 0.5l-5.7 1.6l-0.4-1.6l5.6-1.6q1-0.3 1.4-0.6q0.4-0.3 0.6-0.9q0.2-0.6 0-1.2q-0.3-1.1-1.1-1.6q-0.9-0.6-2.6-0.1l-5.1 1.4zm4.7 13.9l-1.4 0.6q-0.3-0.7-0.4-1.3q-0.1-0.9 0-1.4q0.2-0.6 0.6-0.9q0.5-0.3 1.9-0.6l5.4-1l-0.2-1.3l1.3-0.2l0.2 1.2l2.3-0.4l1.3 1.4l-3.3 0.7l0.3 1.6l-1.2 0.3l-0.4-1.7l-5.5 1.1q-0.7 0.1-0.9 0.3q-0.1 0.1-0.2 0.3q-0.1 0.3 0 0.6q0 0.3 0.2 0.7zm10 4l2.6 1l0.3 2.2l-2.8-1.8zm-7.3 4.6v1.8q-1.5-0.3-2.4-1.3q-1-1-1.2-2.7q-0.2-2.2 1-3.6c0.7-1 1.9-1.6 3.5-1.7q2.4-0.3 3.9 0.8q1.4 1.2 1.6 3.2q0.3 2-0.9 3.4q-1.2 1.4-3.6 1.7q-0.1 0-0.4 0l-0.8-7.4q-1.5 0.3-2.3 1.2q-0.7 1-0.6 2.2q0.1 0.9 0.6 1.5q0.6 0.6 1.6 0.9zm2.1-5.8l0.6 5.5q1.2-0.2 1.7-0.8q0.8-0.9 0.7-2.2q-0.1-1.2-0.9-1.9q-0.9-0.7-2.1-0.6z" />
			<path id="Expert près la Cour d'Appel de V" fill="#ffffff" aria-label="Expert près la Cour d'Appel de Versailles
"  d="m15.8 136l2.98-15.31h10.65l-0.59 2.98h-6.69l-0.56 2.86h6.31l-0.59 2.98h-6.3l-0.68 3.51h6.91l-0.56 2.98zm13.04 0l5.51-5.88l-3.05-5.6h3.82l1.7 3.4l2.98-3.4h3.99l-5.23 5.58l3.2 5.9h-3.82l-1.81-3.63l-3.3 3.63zm19.07-1.66l-1.17 6.03h-3.7l3.09-15.85h3.69l-0.34 1.68q0.84-1.01 1.77-1.48q0.92-0.48 2.02-0.48q1.93 0 3.06 1.23q1.13 1.23 1.13 3.35q0 1.33-0.4 2.58q-0.39 1.25-1.13 2.27q-0.93 1.29-2.11 1.96q-1.17 0.67-2.51 0.67q-1.18 0-2.01-0.47q-0.82-0.49-1.39-1.49zm3.86-7.44q-1.42 0-2.32 1.32q-0.89 1.3-0.89 3.39q0 0.94 0.5 1.49q0.52 0.53 1.42 0.53q1.38 0 2.28-1.28q0.91-1.29 0.91-3.3q0-1.05-0.5-1.59q-0.48-0.56-1.4-0.56zm19.72 3.79l-0.13 0.58h-8.59q0 0.06-0.01 0.19q-0.01 0.11-0.01 0.17q0 1.12 0.67 1.67q0.67 0.56 2.02 0.56q1.16 0 2.44-0.35q1.29-0.35 2.71-1.04l-0.57 2.85q-1.34 0.5-2.67 0.74q-1.33 0.24-2.7 0.24q-2.69 0-4.15-1.24q-1.46-1.24-1.46-3.51q0-1.31 0.46-2.54q0.47-1.24 1.36-2.27q1.06-1.23 2.53-1.87q1.47-0.63 3.27-0.63q2.33 0 3.69 1.24q1.37 1.24 1.37 3.34q0 0.41-0.06 0.87q-0.05 0.46-0.17 1zm-8.22-1.68h4.75q0.03-0.14 0.04-0.27q0.02-0.14 0.02-0.28q0-0.82-0.49-1.3q-0.49-0.48-1.33-0.48q-1.08 0-1.84 0.59q-0.75 0.59-1.15 1.74zm20.7-4.69l-0.65 3.32q-0.38-0.21-0.84-0.33q-0.46-0.11-0.99-0.11q-1.41 0-2.34 0.9q-0.93 0.91-1.25 2.61l-1.05 5.29h-3.68l2.24-11.48h3.69l-0.4 1.96q0.72-1.08 1.81-1.66q1.1-0.58 2.43-0.58q0.2 0 0.44 0.02q0.25 0.02 0.59 0.06zm2.78-3.07h3.69l-0.63 3.27h3.75l-0.52 2.62h-3.75l-0.94 4.86q-0.05 0.17-0.07 0.28q-0.01 0.11-0.01 0.21q0 0.47 0.31 0.68q0.32 0.2 1.06 0.2h1.89l-0.52 2.63h-3.08q-1.67 0-2.54-0.7q-0.87-0.69-0.87-2.01q0-0.28 0.03-0.61q0.03-0.33 0.09-0.67l0.95-4.87h-1.81l0.5-2.62h1.83zm18.15 13.08l-1.18 6.03h-3.69l3.09-15.85h3.69l-0.34 1.68q0.84-1.01 1.76-1.48q0.92-0.48 2.02-0.48q1.94 0 3.07 1.23q1.13 1.23 1.13 3.35q0 1.33-0.4 2.58q-0.39 1.25-1.13 2.27q-0.94 1.3-2.11 1.96q-1.17 0.67-2.52 0.67q-1.18 0-2.01-0.47q-0.82-0.49-1.38-1.49zm3.85-7.43q-1.41 0-2.31 1.31q-0.89 1.3-0.89 3.39q0 0.95 0.5 1.49q0.51 0.53 1.41 0.53q1.39 0 2.29-1.28q0.9-1.29 0.9-3.3q0-1.05-0.49-1.59q-0.48-0.55-1.41-0.55zm17.96-2.59l-0.65 3.32q-0.38-0.21-0.84-0.32q-0.46-0.12-0.99-0.12q-1.41 0-2.34 0.91q-0.92 0.9-1.25 2.6l-1.05 5.29h-3.68l2.24-11.48h3.69l-0.4 1.97q0.73-1.09 1.81-1.67q1.1-0.58 2.43-0.58q0.2 0 0.45 0.02q0.24 0.02 0.58 0.06zm12.12 6.37l-0.12 0.58h-8.6q0 0.07-0.01 0.19q-0.01 0.11-0.01 0.17q0 1.12 0.67 1.67q0.68 0.56 2.02 0.56q1.16 0 2.44-0.35q1.29-0.35 2.71-1.04l-0.57 2.85q-1.34 0.5-2.67 0.74q-1.33 0.24-2.7 0.24q-2.69 0-4.15-1.24q-1.46-1.24-1.46-3.51q0-1.31 0.46-2.54q0.47-1.24 1.37-2.27q1.05-1.23 2.52-1.86q1.48-0.64 3.27-0.64q2.33 0 3.69 1.24q1.38 1.24 1.38 3.34q0 0.41-0.07 0.87q-0.05 0.46-0.17 1zm-8.21-1.68h4.74q0.03-0.14 0.04-0.27q0.03-0.14 0.03-0.28q0-0.82-0.5-1.3q-0.49-0.48-1.33-0.48q-1.08 0-1.84 0.59q-0.74 0.59-1.14 1.74zm0.08-9.81h2.9l2.14 3.86h-2.02zm20.93 5.67l-0.54 2.85q-1.08-0.51-2.15-0.78q-1.06-0.26-2.02-0.26q-1.08 0-1.68 0.28q-0.58 0.28-0.58 0.8q0 0.31 0.33 0.49q0.33 0.19 1.29 0.39l0.67 0.13q2.22 0.47 3.11 1.22q0.89 0.74 0.89 2.06q0 2-1.56 3.13q-1.57 1.11-4.39 1.11q-1.18 0-2.41-0.18q-1.23-0.19-2.51-0.55l0.55-2.89q0.99 0.59 2.12 0.89q1.14 0.29 2.33 0.29q1.16 0 1.74-0.27q0.59-0.28 0.59-0.81q0-0.37-0.33-0.58q-0.33-0.2-1.35-0.42l-0.67-0.12q-1.97-0.41-2.81-1.21q-0.84-0.8-0.84-2.22q0-1.91 1.44-2.95q1.46-1.04 4.16-1.04q1.18 0 2.31 0.17q1.15 0.15 2.31 0.47zm8.7 11.13l3.09-15.96h3.69l-3.1 15.96zm15.22-5.17h-1.76q-1.37 0-2.08 0.43q-0.7 0.42-0.7 1.25q0 0.63 0.41 0.98q0.42 0.36 1.15 0.36q1.13 0 1.89-0.67q0.76-0.69 1.01-1.93zm3.97-1.39l-1.28 6.56h-3.67l0.31-1.71q-0.91 1.03-1.91 1.52q-1.01 0.48-2.19 0.48q-1.63 0-2.59-0.84q-0.95-0.85-0.95-2.28q0-2.2 1.69-3.36q1.7-1.17 4.9-1.17h2.16l0.04-0.28q0.04-0.15 0.04-0.21q0.01-0.06 0.01-0.11q0-0.68-0.65-1.02q-0.64-0.34-1.9-0.34q-1.14 0-2.2 0.23q-1.07 0.24-2.06 0.71l0.55-2.8q1.15-0.29 2.35-0.43q1.21-0.15 2.5-0.15q2.55 0 3.8 0.88q1.24 0.87 1.24 2.66q0 0.35-0.06 0.77q-0.04 0.41-0.13 0.89zm22.24 2.44l-0.67 3.4q-1.42 0.5-2.72 0.76q-1.3 0.25-2.47 0.25q-3.09 0-4.94-1.69q-1.84-1.69-1.84-4.48q0-1.83 0.58-3.45q0.59-1.63 1.73-2.98q1.34-1.58 3.23-2.43q1.89-0.85 4.08-0.85q1.19 0 2.39 0.29q1.2 0.27 2.44 0.85l-0.64 3.17q-0.98-0.75-1.98-1.1q-0.99-0.35-2.13-0.35q-2.37 0-3.97 1.83q-1.6 1.82-1.6 4.56q0 1.76 0.99 2.77q0.98 1 2.71 1q1.04 0 2.2-0.37q1.17-0.38 2.61-1.18zm9.89-5.02q-1.43 0-2.35 1.29q-0.92 1.29-0.92 3.29q0 1.09 0.49 1.67q0.5 0.56 1.45 0.56q1.43 0 2.35-1.29q0.92-1.31 0.92-3.32q0-1.07-0.5-1.64q-0.49-0.56-1.44-0.56zm0.29-2.62q2.57 0 4.03 1.3q1.47 1.3 1.47 3.55q0 1.3-0.46 2.53q-0.46 1.22-1.34 2.23q-1.05 1.21-2.48 1.83q-1.42 0.61-3.17 0.61q-2.54 0-4-1.3q-1.46-1.3-1.46-3.55q0-1.29 0.47-2.52q0.47-1.24 1.36-2.26q1.02-1.19 2.44-1.81q1.42-0.61 3.14-0.61zm7.68 7.29l1.35-7.02h3.68l-1.16 5.98q-0.12 0.58-0.18 0.99q-0.07 0.42-0.07 0.65q0 0.65 0.36 1.01q0.36 0.35 1.03 0.35q1.14 0 1.96-0.88q0.82-0.88 1.12-2.45l1.11-5.65h3.68l-2.22 11.49h-3.7l0.33-1.69q-0.94 1-1.97 1.49q-1.04 0.49-2.19 0.49q-1.57 0-2.43-0.83q-0.86-0.83-0.86-2.34q0-0.36 0.04-0.76q0.04-0.4 0.12-0.83zm24.97-7.21l-0.64 3.32q-0.38-0.22-0.84-0.33q-0.47-0.11-1-0.11q-1.4 0-2.34 0.9q-0.92 0.9-1.25 2.61l-1.04 5.29h-3.68l2.23-11.49h3.69l-0.4 1.97q0.73-1.09 1.82-1.66q1.09-0.58 2.43-0.58q0.19 0 0.44 0.02q0.24 0.02 0.58 0.06zm12.68 9.31q1.41 0 2.29-1.3q0.9-1.31 0.9-3.41q0-0.95-0.51-1.49q-0.49-0.53-1.38-0.53q-1.4 0-2.3 1.29q-0.9 1.29-0.9 3.29q0 1.05 0.48 1.6q0.49 0.55 1.42 0.55zm3.86-7.44l1.19-6.15h3.7l-3.1 15.96h-3.71l0.34-1.66q-0.84 1-1.76 1.48q-0.92 0.47-2.02 0.47q-1.94 0-3.07-1.23q-1.12-1.23-1.12-3.35q0-1.32 0.39-2.57q0.39-1.25 1.13-2.28q0.94-1.29 2.11-1.96q1.17-0.66 2.52-0.66q1.18 0 2 0.48q0.83 0.47 1.4 1.47zm6.72-5.5h2.43v5.69h-2.43zm15.18 15.31l-0.44-2.79h-6.11l-1.52 2.79h-4.05l8.66-15.31h4.51l2.71 15.31zm-1.88-11.47l-3.19 5.9h4.11zm12.04 9.8l-1.18 6.03h-3.69l3.09-15.85h3.69l-0.34 1.68q0.84-1 1.76-1.48q0.93-0.48 2.02-0.48q1.94 0 3.07 1.23q1.13 1.23 1.13 3.36q0 1.32-0.4 2.57q-0.39 1.25-1.13 2.28q-0.93 1.29-2.11 1.95q-1.17 0.67-2.51 0.67q-1.18 0-2.01-0.47q-0.82-0.48-1.39-1.49zm3.86-7.43q-1.42 0-2.32 1.31q-0.89 1.3-0.89 3.39q0 0.95 0.5 1.49q0.51 0.53 1.42 0.53q1.38 0 2.28-1.28q0.9-1.29 0.9-3.3q0-1.04-0.49-1.59q-0.48-0.55-1.4-0.55zm11.17 7.43l-1.18 6.03h-3.69l3.09-15.85h3.69l-0.34 1.68q0.84-1 1.77-1.48q0.92-0.48 2.02-0.48q1.93 0 3.06 1.23q1.13 1.23 1.13 3.36q0 1.32-0.4 2.57q-0.39 1.25-1.13 2.28q-0.93 1.29-2.11 1.95q-1.17 0.67-2.51 0.67q-1.18 0-2.01-0.47q-0.82-0.48-1.39-1.49zm3.86-7.43q-1.42 0-2.32 1.31q-0.89 1.3-0.89 3.39q0 0.95 0.5 1.49q0.52 0.53 1.42 0.53q1.38 0 2.28-1.28q0.91-1.29 0.91-3.3q0-1.04-0.5-1.59q-0.48-0.55-1.4-0.55zm19.72 3.78l-0.13 0.59h-8.59q0 0.06-0.01 0.18q-0.01 0.11-0.01 0.18q0 1.11 0.67 1.67q0.67 0.55 2.02 0.55q1.16 0 2.44-0.35q1.29-0.35 2.71-1.03l-0.57 2.85q-1.34 0.49-2.67 0.74q-1.33 0.23-2.7 0.23q-2.69 0-4.15-1.24q-1.46-1.24-1.46-3.51q0-1.31 0.46-2.54q0.47-1.24 1.36-2.27q1.06-1.23 2.53-1.86q1.47-0.64 3.27-0.64q2.33 0 3.69 1.24q1.37 1.24 1.37 3.35q0 0.41-0.06 0.87q-0.05 0.45-0.17 0.99zm-8.22-1.68h4.75q0.03-0.13 0.04-0.27q0.02-0.14 0.02-0.27q0-0.82-0.49-1.31q-0.49-0.48-1.33-0.48q-1.08 0-1.84 0.6q-0.75 0.58-1.15 1.73zm9.9 6.99l3.1-15.95h3.69l-3.11 15.95zm20.31-2.37q1.42 0 2.3-1.3q0.89-1.3 0.89-3.4q0-0.96-0.5-1.49q-0.49-0.53-1.38-0.53q-1.4 0-2.3 1.29q-0.9 1.28-0.9 3.29q0 1.05 0.48 1.6q0.49 0.54 1.41 0.54zm3.87-7.43l1.19-6.15h3.7l-3.11 15.95h-3.7l0.34-1.66q-0.84 1.01-1.76 1.49q-0.93 0.47-2.02 0.47q-1.94 0-3.07-1.23q-1.13-1.23-1.13-3.35q0-1.33 0.39-2.58q0.4-1.25 1.14-2.27q0.93-1.29 2.1-1.96q1.18-0.67 2.52-0.67q1.18 0 2 0.48q0.84 0.48 1.41 1.48zm17.92 4.49l-0.12 0.59h-8.59q0 0.06-0.01 0.18q-0.01 0.11-0.01 0.18q0 1.11 0.66 1.67q0.68 0.55 2.02 0.55q1.16 0 2.44-0.35q1.3-0.35 2.71-1.03l-0.56 2.85q-1.35 0.49-2.68 0.74q-1.32 0.23-2.7 0.23q-2.68 0-4.15-1.24q-1.46-1.24-1.46-3.51q0-1.31 0.47-2.54q0.47-1.24 1.36-2.27q1.06-1.23 2.52-1.86q1.48-0.64 3.27-0.64q2.33 0 3.69 1.24q1.38 1.24 1.38 3.35q0 0.41-0.06 0.87q-0.05 0.45-0.18 0.99zm-8.21-1.68h4.75q0.03-0.13 0.04-0.27q0.02-0.14 0.02-0.27q0-0.82-0.49-1.31q-0.5-0.48-1.34-0.48q-1.07 0-1.83 0.6q-0.75 0.58-1.15 1.73zm20.85 6.99l-2.69-15.31h3.75l1.88 11.45l6.34-11.45h4.07l-8.65 15.31zm23.65-5.31l-0.13 0.59h-8.59q0 0.06-0.01 0.18q-0.01 0.11-0.01 0.18q0 1.11 0.67 1.67q0.67 0.55 2.02 0.55q1.16 0 2.44-0.35q1.29-0.35 2.71-1.03l-0.57 2.85q-1.34 0.49-2.67 0.74q-1.33 0.23-2.7 0.23q-2.69 0-4.15-1.24q-1.46-1.24-1.46-3.51q0-1.31 0.46-2.54q0.47-1.24 1.36-2.27q1.06-1.23 2.53-1.86q1.47-0.64 3.27-0.64q2.33 0 3.69 1.24q1.37 1.24 1.37 3.35q0 0.41-0.06 0.87q-0.05 0.45-0.17 0.99zm-8.22-1.68h4.75q0.03-0.13 0.04-0.27q0.02-0.14 0.02-0.27q0-0.82-0.49-1.31q-0.49-0.48-1.33-0.48q-1.08 0-1.84 0.6q-0.75 0.58-1.15 1.73zm20.7-4.69l-0.65 3.33q-0.38-0.22-0.84-0.33q-0.46-0.11-0.99-0.11q-1.41 0-2.34 0.9q-0.93 0.9-1.25 2.6l-1.05 5.29h-3.68l2.23-11.48h3.7l-0.4 1.97q0.72-1.09 1.81-1.66q1.1-0.59 2.43-0.59q0.2 0 0.44 0.02q0.25 0.02 0.59 0.06zm10.67 0.56l-0.54 2.85q-1.08-0.51-2.15-0.78q-1.06-0.27-2.02-0.27q-1.08 0-1.68 0.29q-0.58 0.28-0.58 0.8q0 0.31 0.33 0.49q0.32 0.19 1.29 0.39l0.67 0.12q2.22 0.48 3.11 1.22q0.89 0.74 0.89 2.07q0 2-1.56 3.12q-1.57 1.12-4.39 1.12q-1.18 0-2.41-0.18q-1.23-0.19-2.51-0.56l0.55-2.88q0.99 0.59 2.12 0.88q1.14 0.3 2.33 0.3q1.16 0 1.74-0.28q0.59-0.27 0.59-0.81q0-0.37-0.33-0.57q-0.33-0.21-1.35-0.42l-0.67-0.12q-1.97-0.41-2.81-1.21q-0.84-0.8-0.84-2.22q0-1.92 1.44-2.95q1.46-1.04 4.16-1.04q1.18 0 2.31 0.17q1.15 0.15 2.31 0.47zm9.41 5.96h-1.76q-1.37 0-2.08 0.43q-0.7 0.42-0.7 1.25q0 0.62 0.41 0.98q0.42 0.36 1.15 0.36q1.13 0 1.89-0.68q0.76-0.68 1.01-1.92zm3.97-1.39l-1.28 6.55h-3.67l0.31-1.7q-0.91 1.03-1.91 1.52q-1.01 0.48-2.19 0.48q-1.63 0-2.59-0.84q-0.95-0.85-0.95-2.29q0-2.19 1.69-3.35q1.7-1.17 4.9-1.17h2.16l0.04-0.29q0.04-0.14 0.04-0.2q0.01-0.06 0.01-0.11q0-0.68-0.65-1.02q-0.64-0.35-1.9-0.35q-1.14 0-2.2 0.24q-1.07 0.23-2.06 0.71l0.55-2.8q1.15-0.29 2.35-0.43q1.21-0.16 2.5-0.16q2.55 0 3.79 0.88q1.25 0.88 1.25 2.67q0 0.35-0.06 0.77q-0.04 0.41-0.13 0.89zm2.17 6.55l2.24-11.48h3.69l-2.24 11.48zm2.5-12.96l0.59-2.99h3.69l-0.58 2.99zm4.7 12.96l3.09-15.95h3.69l-3.1 15.95zm7.19 0l3.1-15.95h3.69l-3.1 15.95zm19.76-5.31l-0.13 0.59h-8.59q0 0.06-0.01 0.18q-0.01 0.11-0.01 0.18q0 1.11 0.67 1.67q0.67 0.55 2.02 0.55q1.15 0 2.44-0.35q1.29-0.35 2.7-1.03l-0.56 2.85q-1.34 0.49-2.68 0.74q-1.32 0.23-2.69 0.23q-2.69 0-4.16-1.24q-1.45-1.24-1.45-3.51q0-1.31 0.46-2.54q0.47-1.24 1.36-2.27q1.06-1.23 2.52-1.86q1.48-0.64 3.28-0.64q2.32 0 3.69 1.24q1.37 1.24 1.37 3.35q0 0.41-0.06 0.87q-0.05 0.45-0.17 0.99zm-8.22-1.68h4.75q0.03-0.13 0.04-0.27q0.02-0.14 0.02-0.27q0-0.82-0.49-1.3q-0.49-0.49-1.33-0.49q-1.08 0-1.84 0.6q-0.75 0.58-1.15 1.73zm21.01-4.13l-0.54 2.85q-1.08-0.51-2.14-0.78q-1.07-0.27-2.02-0.27q-1.09 0-1.69 0.29q-0.58 0.28-0.58 0.8q0 0.31 0.33 0.49q0.33 0.19 1.29 0.39l0.67 0.12q2.22 0.48 3.11 1.23q0.9 0.73 0.9 2.06q0 2-1.57 3.12q-1.57 1.12-4.39 1.12q-1.18 0-2.41-0.18q-1.23-0.19-2.51-0.56l0.55-2.88q0.99 0.59 2.12 0.88q1.14 0.3 2.33 0.3q1.16 0 1.74-0.28q0.59-0.27 0.59-0.81q0-0.37-0.33-0.57q-0.33-0.21-1.35-0.42l-0.67-0.12q-1.97-0.41-2.81-1.21q-0.84-0.8-0.84-2.22q0-1.92 1.44-2.95q1.46-1.04 4.16-1.04q1.18 0 2.32 0.17q1.14 0.15 2.3 0.47z" />
		</g>
	</g>
</svg>